<?xml version="1.0" standalone="no"?>
<!DOCTYPE svg PUBLIC "-//W3C//DTD SVG 1.1//EN" "http://www.w3.org/Graphics/SVG/1.1/DTD/svg11.dtd" >
<svg xmlns="http://www.w3.org/2000/svg" xmlns:xlink="http://www.w3.org/1999/xlink" version="1.1">
<metadata></metadata>
<defs>
<font id="public_sansextralight" horiz-adv-x="1433" >
<font-face units-per-em="2048" ascent="1597" descent="-451" />
<missing-glyph horiz-adv-x="505" />
<glyph unicode="&#xfb01;" horiz-adv-x="1335" d="M82 958v101h237v170q0 252 240 252h176v-99h-168q-66 0 -92 -36.5t-26 -114.5v-172h276v-101h-274v-958h-132v958h-237zM1001 1303v157h146v-157h-146zM1010 0v1059h131v-1059h-131z" />
<glyph unicode="&#xfb02;" horiz-adv-x="1386" d="M82 958v101h237v170q0 252 240 252h176v-99h-168q-66 0 -92 -36.5t-26 -114.5v-172h276v-101h-274v-958h-132v958h-237zM993 258v1264h129v-1254q0 -89 33 -132.5t86 -45.5h62v-88q-43 -12 -80 -12q-230 0 -230 268z" />
<glyph horiz-adv-x="55" />
<glyph horiz-adv-x="55" />
<glyph horiz-adv-x="682" />
<glyph unicode="&#xd;" horiz-adv-x="473" />
<glyph unicode=" "  horiz-adv-x="505" />
<glyph unicode="&#x09;" horiz-adv-x="505" />
<glyph unicode="&#xa0;" horiz-adv-x="505" />
<glyph unicode="!" horiz-adv-x="479" d="M154 0v195h168v-195h-168zM158 1481h159l-32 -1149h-95z" />
<glyph unicode="&#x22;" horiz-adv-x="811" d="M154 1481h186l-51 -426h-86zM469 1481h188l-53 -426h-86z" />
<glyph unicode="#" horiz-adv-x="1220" d="M84 492v94h258l49 325h-241v95h256l73 477l94 -10l-71 -467h315l74 477l94 -10l-72 -467h220v-95h-234l-49 -325h217v-94h-231l-76 -494l-94 14l73 480h-315l-76 -494l-94 14l74 480h-244zM438 586h316l49 325h-316z" />
<glyph unicode="$" horiz-adv-x="1323" d="M133 358l137 17q36 -136 143 -205.5t265 -69.5q94 0 177.5 32t138.5 94.5t55 142.5q0 106 -61.5 174t-194.5 106l-263 76q-171 48 -260.5 133t-89.5 221q0 171 121.5 286t323.5 132v211h129v-213q181 -20 289.5 -132.5t117.5 -268.5l-131 -13q-55 299 -344 299 q-67 0 -130 -18t-116 -52t-85.5 -91t-32.5 -129q0 -89 61.5 -141t224.5 -103l250 -76q332 -102 332 -399q0 -157 -125 -265.5t-326 -123.5v-207h-131v207q-193 15 -319.5 113t-155.5 263z" />
<glyph unicode="%" horiz-adv-x="1812" d="M117 1079q0 197 94 310.5t244 113.5q149 0 242.5 -113.5t93.5 -310.5q0 -199 -92.5 -311.5t-243.5 -112.5q-150 0 -244 113t-94 311zM221 1079q0 -153 63 -248.5t169 -95.5q107 0 170 95t63 249q0 153 -63.5 248.5t-169.5 95.5t-169 -96t-63 -248zM391 -8l1000 1505h98 l-995 -1505h-103zM1020 406q0 196 94.5 309.5t243.5 113.5t242.5 -113.5t93.5 -309.5q0 -200 -92.5 -313t-243.5 -113t-244.5 113t-93.5 313zM1124 403q0 -148 64.5 -245t167.5 -97t168 97t65 245q0 149 -65 247t-168 98t-167.5 -98.5t-64.5 -246.5z" />
<glyph unicode="&#x26;" horiz-adv-x="1366" d="M86 373q0 139 82.5 245.5t255.5 198.5q-94 100 -140 188.5t-46 182.5q0 134 98.5 224.5t251.5 90.5q157 0 269 -85.5t112 -225.5q0 -30 -7 -60.5t-30.5 -73.5t-61.5 -84.5t-106 -91.5t-158 -96l375 -438q47 54 93.5 167t51.5 259h123q-11 -158 -61.5 -276t-138.5 -232 l227 -266h-154l-153 176q-206 -186 -455 -186q-200 0 -314 104.5t-114 278.5zM225 371q3 -121 92.5 -196t221.5 -75q97 0 191.5 43.5t170.5 116.5l-407 473q-127 -70 -198.5 -161.5t-70.5 -200.5zM369 1196q0 -80 45.5 -159.5t95.5 -131.5l33 -37q176 99 238.5 172.5 t62.5 151.5q0 56 -22 98.5t-59 66t-80 34.5t-91 10q-104 0 -163.5 -60t-59.5 -145z" />
<glyph unicode="'" horiz-adv-x="493" d="M154 1481h186l-51 -426h-86z" />
<glyph unicode="(" horiz-adv-x="585" d="M154 668q0 243 78.5 477.5t213.5 433.5h86q-110 -212 -175.5 -447t-65.5 -466q0 -426 221 -897h-86q-136 235 -204 445t-68 454z" />
<glyph unicode=")" horiz-adv-x="602" d="M49 1579h86q134 -199 212.5 -433.5t78.5 -477.5q0 -245 -67.5 -455.5t-202.5 -443.5h-86q221 471 221 897q0 231 -66 465.5t-176 447.5z" />
<glyph unicode="*" horiz-adv-x="718" d="M53 1212l31 91l242 -95l-17 273h111l-14 -273l243 105l29 -90l-246 -82l178 -223l-88 -64l-153 248l-162 -254l-86 57l184 234z" />
<glyph unicode="+" horiz-adv-x="1097" d="M129 688v109h367v366h108v-364h365v-109h-365v-364h-106v362h-369z" />
<glyph unicode="," horiz-adv-x="454" d="M86 -242l113 240l-82 2v193h200v-166l-155 -269h-76z" />
<glyph unicode="-" horiz-adv-x="761" d="M129 473v111l500 2v-111z" />
<glyph unicode="." horiz-adv-x="411" d="M119 0v197h170v-197h-170z" />
<glyph unicode="/" horiz-adv-x="684" d="M29 -102l510 1583h114l-510 -1583h-114z" />
<glyph unicode="0" horiz-adv-x="1218" d="M104 733q0 376 135.5 572t370.5 196q234 0 369 -195.5t135 -568.5q0 -372 -135.5 -564.5t-370.5 -192.5q-236 0 -370 191t-134 562zM246 737q0 -637 364 -637q178 0 268.5 153t90.5 484q0 645 -361 645q-362 0 -362 -645z" />
<glyph unicode="1" horiz-adv-x="802" d="M98 1217v100q134 0 206 17.5t99 51t29 95.5h100v-1481h-137v1217h-297z" />
<glyph unicode="2" horiz-adv-x="1208" d="M117 1055q2 92 36 172t95.5 141.5t157 97t212.5 35.5q209 0 334 -111t125 -296q0 -86 -27 -158t-72 -124.5t-103.5 -98t-123.5 -83t-130 -74t-123.5 -76.5t-103.5 -84.5t-72 -104.5t-27 -131v-37h795v-123h-938v150q0 86 27 158.5t72.5 126t104.5 100t124.5 85t131 76 t124.5 78t104.5 86t72.5 105.5t27 131q0 127 -90 204.5t-240 77.5q-159 0 -254.5 -89.5t-103.5 -233.5h-135z" />
<glyph unicode="3" horiz-adv-x="1241" d="M94 408h135q20 -145 119.5 -227.5t253.5 -82.5q178 0 285.5 83t107.5 218q0 101 -57.5 174t-151 107.5t-211.5 34.5l-129 2v119l125 2q159 0 271 85.5t112 200.5q0 107 -93.5 183.5t-258.5 76.5q-65 0 -125.5 -20t-110.5 -58.5t-80.5 -101.5t-31.5 -141h-135 q0 131 66.5 232t175 153.5t239.5 52.5q224 0 360 -101t136 -272q0 -113 -73.5 -203.5t-215.5 -140.5q158 -43 245 -142.5t87 -238.5q0 -194 -151 -310t-394 -113q-212 3 -352.5 120t-147.5 308z" />
<glyph unicode="4" horiz-adv-x="1257" d="M92 406v133l699 942h137v-955h256v-120h-256v-406h-129v406h-707zM221 526h572v766z" />
<glyph unicode="5" horiz-adv-x="1300" d="M113 375l125 31q51 -142 160 -226t259 -84q173 0 276 102t103 283q0 165 -106 266t-256 101q-115 0 -196 -33.5t-163 -136.5q-4 -2 -10 0l-127 22l68 781h848l-4 -119h-725l-43 -545q131 148 368 148q96 0 183 -31t155.5 -89.5t109 -151.5t40.5 -208 q0 -228 -142.5 -366.5t-376.5 -138.5q-197 0 -346.5 108.5t-199.5 286.5z" />
<glyph unicode="6" horiz-adv-x="1228" d="M104 735q0 362 143 571.5t412 209.5q176 0 303.5 -97.5t157.5 -265.5h-127q-33 114 -119.5 180t-211.5 66q-219 0 -326 -183t-90 -542q35 134 147 217.5t256 83.5q219 0 350 -126.5t131 -348.5q0 -228 -131.5 -367t-357.5 -139q-246 0 -391.5 196.5t-145.5 544.5z M283 535q-3 -184 97.5 -304t264.5 -120q153 0 247.5 106t94.5 277q0 172 -87.5 269t-258.5 97q-141 0 -249.5 -95.5t-108.5 -229.5z" />
<glyph unicode="7" horiz-adv-x="1187" d="M94 1362v119h1004v-119q-200 -284 -379 -705t-217 -657h-142q30 158 100.5 368t200.5 485.5t285 508.5h-852z" />
<glyph unicode="8" horiz-adv-x="1312" d="M111 414q0 127 94 239.5t213 134.5q-242 95 -242 324q0 184 135 289.5t344 105.5q137 0 245.5 -45.5t172.5 -136t64 -213.5q0 -229 -242 -324q119 -22 213 -134.5t94 -239.5q0 -190 -148.5 -304t-398.5 -114q-248 0 -396 114t-148 304zM252 410q0 -137 110 -219t293 -82 q184 0 295 82t111 219q0 138 -111.5 225.5t-294.5 87.5q-181 0 -292 -87.5t-111 -225.5zM313 1116q0 -129 92.5 -197.5t249.5 -68.5q158 0 250 68.5t92 197.5t-94 206t-248 77q-153 0 -247.5 -77.5t-94.5 -205.5z" />
<glyph unicode="9" horiz-adv-x="1245" d="M109 354h129q30 -112 119.5 -178.5t215.5 -66.5q223 0 337.5 182t97.5 549q-36 -138 -147.5 -224t-260.5 -86q-218 0 -349.5 128t-131.5 352q0 229 129.5 366t355.5 137q247 0 391 -195.5t144 -545.5q0 -365 -145 -571.5t-416 -206.5q-176 0 -307.5 97t-161.5 263z M260 1016q0 -171 87.5 -269t256.5 -98q91 0 174.5 43t135 118.5t51.5 162.5q2 185 -99 305.5t-264 120.5q-153 0 -247.5 -106t-94.5 -277z" />
<glyph unicode=":" horiz-adv-x="411" d="M119 6v195h170v-195h-170zM119 811v197h170v-197h-170z" />
<glyph unicode=";" horiz-adv-x="448" d="M119 -279l106 279h-69v195h170v-172l-148 -302h-59zM147 809v197h170v-197h-170z" />
<glyph unicode="&#x3c;" horiz-adv-x="1081" d="M129 645v131l823 330v-137l-653 -258l651 -258v-129z" />
<glyph unicode="=" horiz-adv-x="1097" d="M129 442v107l840 2v-109h-840zM129 889v108h840v-106z" />
<glyph unicode="&#x3e;" horiz-adv-x="1081" d="M129 969v137l821 -330v-131l-819 -321v129l651 258z" />
<glyph unicode="?" horiz-adv-x="1071" d="M61 1227q64 127 189.5 200.5t277.5 73.5q198 0 317.5 -98.5t119.5 -259.5q0 -72 -23 -137t-59.5 -115.5t-81 -99.5t-89 -98.5t-81 -100.5t-59.5 -117t-23 -139h-119q0 80 22 152t57 127t77.5 106t84.5 99t77 95t57 104.5t22 119.5q0 116 -81.5 184t-217.5 68 q-109 0 -210.5 -61t-135.5 -146zM406 0v195h169v-195h-169z" />
<glyph unicode="@" horiz-adv-x="1671" d="M100 520q0 161 59 307t162 254.5t253.5 173t324.5 64.5q105 0 203.5 -23t189 -74t158 -124t107.5 -181t40 -237q0 -228 -109 -373t-274 -145q-77 0 -119 25.5t-57 84.5q-3 13 -8 13t-14 -11q-104 -141 -281 -141q-113 0 -194.5 98.5t-81.5 253.5q0 194 109 328.5 t274 134.5q158 0 233 -133q3 -8 8 -2q3 2 4 8l21 76h104l-77 -463q-15 -91 7 -129.5t79 -38.5q109 0 183.5 111t74.5 291q0 114 -34.5 208t-91.5 156t-133 105t-157 61.5t-166 18.5q-156 0 -286 -56t-215 -151.5t-132 -222t-47 -269.5q0 -133 44 -248t127 -203.5t214 -139 t295 -50.5q65 0 118 9.5t101 31.5t76.5 39.5t79.5 52.5l61 -82q-203 -153 -463 -153q-142 0 -265 38t-215 106.5t-157.5 161t-99 204.5t-33.5 235zM586 492q0 -116 45.5 -183t124.5 -67q101 0 180.5 86.5t97.5 208.5q11 74 -0.5 133.5t-39.5 95.5t-65.5 55t-80.5 19 q-116 0 -189 -100t-73 -248z" />
<glyph unicode="A" d="M98 0l541 1481h158l538 -1481h-135l-160 438h-645l-162 -438h-135zM432 565h567l-280 785z" />
<glyph unicode="B" horiz-adv-x="1343" d="M205 0v1481h442q259 0 397 -99t138 -286q0 -126 -66.5 -210t-218.5 -132q164 -31 243 -123.5t79 -233.5q0 -198 -144 -297.5t-418 -99.5h-452zM334 117h317q218 0 327 66t109 210q0 78 -32 136.5t-89 93t-129.5 51t-160.5 16.5h-342v-573zM334 809h342q56 0 106 7 t101.5 26t88 48t60 77.5t23.5 111.5q0 143 -109.5 214t-298.5 71h-313v-555z" />
<glyph unicode="C" horiz-adv-x="1402" d="M135 739q0 359 156.5 560.5t441.5 201.5q226 0 375 -123t170 -303l-139 -12q-29 145 -131.5 231t-272.5 86q-225 0 -339.5 -162t-114.5 -481q0 -313 116.5 -475t350.5 -162q145 0 249 81t136 222l139 -18q-20 -172 -168.5 -288.5t-355.5 -116.5q-292 0 -452.5 200 t-160.5 559z" />
<glyph unicode="D" horiz-adv-x="1390" d="M205 0v1481q1 0 48.5 -0.5t117 -0.5t123.5 -1q404 -3 588 -181.5t184 -545.5q0 -383 -195 -567.5t-602 -184.5h-264zM340 121h127q164 0 284.5 33.5t206 106.5t128 193.5t42.5 290.5q0 140 -28.5 245.5t-81 176t-134 114.5t-180.5 62.5t-227 18.5h-137v-1241z" />
<glyph unicode="E" horiz-adv-x="1255" d="M205 0v1481h887v-121h-758v-551h694v-121h-694v-563l782 -2v-123h-911z" />
<glyph unicode="F" horiz-adv-x="1167" d="M205 0v1481h874v-121h-739v-553h678v-119h-678v-688h-135z" />
<glyph unicode="G" horiz-adv-x="1482" d="M135 735q0 361 165 563.5t448 202.5q132 0 251 -58t194 -155t85 -209l-145 -14q-22 134 -130 223.5t-258 89.5q-221 0 -346 -165t-125 -465q0 -317 125.5 -482.5t350.5 -165.5q101 0 183.5 39t132 100t76 129.5t27.5 135.5l5 153h-392v103l523 -2v-758h-107v244 q-66 -118 -179.5 -191t-275.5 -73q-285 0 -446.5 200.5t-161.5 554.5z" />
<glyph unicode="H" horiz-adv-x="1417" d="M205 0v1481h129v-652h760v652h129v-1481h-129v709h-760v-709h-129z" />
<glyph unicode="I" horiz-adv-x="528" d="M205 0v1481h129v-1481h-129z" />
<glyph unicode="J" horiz-adv-x="761" d="M51 33l17 131q9 -4 34.5 -16t43 -19t48.5 -13.5t64 -6.5q98 0 136 55t38 192v1125h131v-1166q0 -169 -62 -252t-218 -83q-72 0 -136.5 18.5t-95.5 34.5z" />
<glyph unicode="K" horiz-adv-x="1347" d="M205 0v1481h135v-813l729 813h164l-514 -582l553 -899h-156l-502 801l-274 -312v-489h-135z" />
<glyph unicode="L" horiz-adv-x="1138" d="M205 0v1481h135v-1356h731v-125h-866z" />
<glyph unicode="M" horiz-adv-x="1753" d="M205 0v1481h168l506 -1315l512 1315h168v-1481h-138v1233l-471 -1233h-145l-465 1219v-1219h-135z" />
<glyph unicode="N" horiz-adv-x="1488" d="M205 0v1481h117l841 -1243v1243h131v-1481h-116l-844 1249v-1249h-129z" />
<glyph unicode="O" horiz-adv-x="1509" d="M135 733q0 368 165.5 568t457.5 200q289 0 452.5 -199.5t163.5 -564.5q0 -362 -163.5 -559.5t-454.5 -197.5q-293 0 -457 196t-164 557zM279 737q0 -319 124 -478t357 -159q231 0 351 158t120 479q0 322 -122 482.5t-351 160.5q-231 0 -355 -161t-124 -482z" />
<glyph unicode="P" horiz-adv-x="1290" d="M205 0v1481h475q159 0 280 -51t191 -156t70 -252q0 -218 -144 -340.5t-379 -122.5h-358v-559h-135zM340 680h356q177 0 284 93t107 257q0 163 -107 247.5t-294 84.5h-346v-682z" />
<glyph unicode="Q" horiz-adv-x="1472" d="M104 737q0 368 165 566t456 198t454.5 -198t163.5 -566q0 -249 -75 -418t-238 -262q42 -91 120 -136t177 -48v-119q-40 0 -79 5.5t-88 22t-92.5 43t-87.5 71.5t-77 104q-113 -20 -178 -20q-290 0 -455.5 194.5t-165.5 562.5zM250 733q0 -319 122 -476t353 -157 q232 0 354.5 158t122.5 479q0 318 -122 480.5t-355 162.5t-354 -163t-121 -484z" />
<glyph unicode="R" horiz-adv-x="1363" d="M205 0v1481h545q226 0 346.5 -99t120.5 -284q0 -88 -26.5 -159t-72.5 -117t-96 -75t-109 -47l301 -700h-143l-285 674h-452v-674h-129zM334 791h350q397 0 397 292q0 283 -340 283h-407v-575z" />
<glyph unicode="S" horiz-adv-x="1400" d="M133 358l137 17q31 -134 151 -207.5t281 -73.5q179 0 293.5 76.5t114.5 198.5q0 226 -266 290l-314 76q-171 40 -260.5 123.5t-89.5 220.5q0 184 143.5 302t372.5 118q123 0 222 -33t162 -90.5t99 -129t44 -152.5l-131 -13q-13 80 -50 139.5t-92 93.5t-119 50t-139 16 q-67 0 -131 -18t-118 -52t-87.5 -91.5t-33.5 -128.5q0 -91 63.5 -147.5t222.5 -96.5l301 -76q95 -23 163.5 -65t106 -97t54 -113t16.5 -124q0 -168 -145.5 -279.5t-401.5 -111.5q-140 0 -260 42.5t-204 130t-105 205.5z" />
<glyph unicode="T" horiz-adv-x="1144" d="M31 1358v123h1083v-123h-459v-1358h-131v1358h-493z" />
<glyph unicode="U" horiz-adv-x="1429" d="M205 508v973h137v-1004q0 -379 375 -379q189 0 287 95t98 284v1004h129v-998q0 -250 -126.5 -376.5t-387.5 -126.5q-265 0 -388.5 130.5t-123.5 397.5z" />
<glyph unicode="V" horiz-adv-x="1277" d="M29 1481h133l473 -1338l483 1338h131l-530 -1481h-170z" />
<glyph unicode="W" horiz-adv-x="1945" d="M57 1481h136l356 -1288l366 1288h111l363 -1288l366 1288h133l-428 -1481h-141l-350 1245l-357 -1245h-135z" />
<glyph unicode="X" horiz-adv-x="1294" d="M57 0l506 758l-485 723h166l403 -607l406 607h151l-481 -715l516 -766h-164l-434 647l-432 -647h-152z" />
<glyph unicode="Y" horiz-adv-x="1161" d="M18 1481h144l422 -725l415 725h144l-494 -848v-633h-131v635z" />
<glyph unicode="Z" horiz-adv-x="1239" d="M109 0v82l843 1280h-817v119h995v-80l-849 -1282h847v-119h-1019z" />
<glyph unicode="[" horiz-adv-x="581" d="M201 1481h334v-97h-211v-1617h211v-97h-332z" />
<glyph unicode="\" horiz-adv-x="684" d="M27 1481h114l510 -1583h-114z" />
<glyph unicode="]" horiz-adv-x="618" d="M49 -233h211l-2 1617h-209v97h334l-2 -1811h-332v97z" />
<glyph unicode="^" horiz-adv-x="956" d="M102 272l297 734q28 70 74 72t76 -72l299 -738h-121l-252 641l-254 -637h-119z" />
<glyph unicode="_" horiz-adv-x="1019" d="M129 -111l760 2v-110l-760 -2v110z" />
<glyph unicode="`" horiz-adv-x="565" d="M16 1382l37 117l492 -194l-27 -78z" />
<glyph unicode="a" horiz-adv-x="1105" d="M102 279q0 177 119 260t387 92l217 6v94q0 114 -75.5 178t-200.5 64q-108 0 -185.5 -53.5t-95.5 -151.5h-123q8 131 119 221t291 90q186 0 291.5 -92t105.5 -252v-735h-112l-11 199q-111 -219 -383 -219q-157 0 -250.5 80.5t-93.5 218.5zM233 289q0 -96 67.5 -151.5 t178.5 -55.5q80 0 160.5 37.5t133 99.5t52.5 125v197l-182 -4q-221 -4 -315.5 -61.5t-94.5 -186.5z" />
<glyph unicode="b" horiz-adv-x="1200" d="M180 0v1522h129v-656q108 213 357 213q109 0 193 -42t135.5 -117.5t77.5 -173t26 -214.5q0 -259 -113 -405.5t-326 -146.5q-73 0 -134.5 18.5t-98 43.5t-66 60t-42 58t-21.5 47l-12 -207h-105zM309 391q3 -124 95.5 -214.5t236.5 -90.5q149 0 234.5 112t85.5 337 q0 207 -82.5 321.5t-241.5 114.5q-59 0 -107.5 -13.5t-81 -34t-58 -50.5t-39 -56t-23.5 -58.5t-13.5 -50t-5.5 -38.5v-279z" />
<glyph unicode="c" horiz-adv-x="1087" d="M102 524q0 247 128 401t343 154q155 0 270 -85t142 -240l-123 -4q-30 109 -104 163t-176 54q-161 0 -256 -120t-95 -319q0 -202 94.5 -322t256.5 -120q105 0 181 57t99 160h121q-15 -82 -54 -145t-94.5 -101.5t-121.5 -57.5t-140 -19q-215 0 -343 149.5t-128 394.5z" />
<glyph unicode="d" horiz-adv-x="1189" d="M102 532q0 117 26 214.5t78 173t136 117.5t193 42q79 0 145 -21.5t108 -55t65.5 -61t37.5 -54.5v635h129v-1522h-105l-12 217q-8 -25 -20 -49.5t-40.5 -60.5t-65.5 -62.5t-99 -45.5t-137 -19q-213 0 -326 146.5t-113 405.5zM236 535q0 -225 86 -337t235 -112 q144 0 237.5 89t96.5 210v291q-3 25 -11.5 55.5t-32.5 75t-58 79.5t-93.5 60t-134.5 25q-159 0 -242 -114.5t-83 -321.5z" />
<glyph unicode="e" horiz-adv-x="1118" d="M102 520q0 259 124 409t345 150q211 0 328 -137t117 -381v-63h-778v-6q0 -111 34 -199q36 -90 115.5 -146.5t194.5 -56.5q228 0 297 205h127q-40 -158 -153 -236.5t-269 -78.5q-217 0 -349.5 144t-132.5 396zM238 600h649q0 166 -81.5 268.5t-236.5 102.5 q-83 0 -149 -32.5t-104 -86.5q-39 -54 -59 -118q-19 -61 -19 -127v-7z" />
<glyph unicode="f" horiz-adv-x="813" d="M82 958v101h237v170q0 252 240 252h176v-99h-168q-66 0 -92 -36.5t-26 -114.5v-172h276v-101h-274v-958h-132v958h-237z" />
<glyph unicode="g" horiz-adv-x="1247" d="M88 -61q0 44 17 82.5t44.5 65.5t53 45t52 33t30.5 19q-4 3 -23.5 14.5t-27.5 18.5t-21.5 20.5t-19 30t-5.5 37.5q0 47 43.5 86t126.5 60q-101 54 -144.5 121.5t-43.5 166.5q0 157 118 246.5t320 89.5q97 0 168 -23.5t135 -72.5q15 6 120 50.5t128 53.5l-2 -145l-186 -37 q16 -32 28.5 -80t12.5 -82q0 -142 -107 -234.5t-313 -92.5l-41 2q-86 -2 -141 -15.5t-75 -31.5t-20 -39q0 -32 45 -46t166 -22l236 -14q323 -20 323 -279q0 -150 -130 -233.5t-365 -83.5q-241 0 -371.5 77t-130.5 212zM219 -47q0 -101 102.5 -154t292.5 -53q342 0 342 209 q0 78 -49 121.5t-162 50.5l-327 20h-6q-57 0 -124 -55q-69 -58 -69 -139zM299 739q0 -112 77 -170.5t220 -58.5q144 0 217.5 58t73.5 171q0 118 -78.5 180t-212.5 62q-141 0 -219 -64t-78 -178z" />
<glyph unicode="h" horiz-adv-x="1189" d="M180 0v1522h125v-617q42 75 132.5 122.5t213.5 47.5q159 0 264 -84.5t105 -218.5v-772h-129v739q0 105 -72 164.5t-194 59.5q-135 0 -225.5 -61.5t-90.5 -176.5v-725h-129z" />
<glyph unicode="i" horiz-adv-x="522" d="M188 1303v157h146v-157h-146zM197 0v1059h131v-1059h-131z" />
<glyph unicode="j" horiz-adv-x="512" d="M-55 -233l116 4q77 3 108.5 38.5t31.5 120.5v1129h131v-1137q0 -139 -55.5 -200.5t-200.5 -61.5q-33 0 -58.5 2t-38.5 5t-21.5 6.5t-10.5 5.5l-2 2v86zM195 1303v157h145v-157h-145z" />
<glyph unicode="k" horiz-adv-x="1140" d="M180 0v1522h129v-1043l557 580h160l-379 -393l414 -666h-148l-356 571l-248 -252v-319h-129z" />
<glyph unicode="l" horiz-adv-x="573" d="M180 258v1264h129v-1254q0 -89 33 -132.5t86 -45.5h61v-88q-43 -12 -79 -12q-230 0 -230 268z" />
<glyph unicode="m" horiz-adv-x="1763" d="M180 0v1059h123v-154q102 174 311 174q98 0 187 -45t125 -127q50 82 134.5 127t188.5 45q48 0 92 -9t91.5 -34.5t81.5 -66.5t56.5 -111t22.5 -162v-696h-131v688q0 281 -241 281q-49 0 -93.5 -12t-86 -39t-66.5 -77.5t-25 -119.5v-721h-129v760q0 97 -74.5 153t-166.5 56 q-48 0 -94 -14t-86.5 -41t-65.5 -74.5t-25 -108.5v-731h-129z" />
<glyph unicode="n" horiz-adv-x="1189" d="M180 0v1059h125v-154q44 76 133 124t211 48q163 0 267 -100t104 -287v-690h-129v682q0 135 -71.5 208t-194.5 73q-135 0 -225.5 -61.5t-90.5 -176.5v-725h-129z" />
<glyph unicode="o" horiz-adv-x="1142" d="M102 522q0 250 126.5 403.5t344.5 153.5q219 0 343 -152.5t124 -400.5q0 -247 -125 -396.5t-344 -149.5q-221 0 -345 148t-124 394zM233 528q0 -198 88 -319t254 -121q164 0 249 120t85 320q0 201 -85.5 321t-250.5 120t-252.5 -121t-87.5 -320z" />
<glyph unicode="p" horiz-adv-x="1198" d="M180 -330v1389h127v-152q19 23 31.5 37.5t45.5 43t66 46t85 31.5t110 14q96 0 177 -33.5t142.5 -98.5t96.5 -167.5t35 -232.5q0 -260 -130.5 -413.5t-344.5 -153.5q-187 0 -312 163v-473h-129zM309 246q137 -160 297 -160q159 0 260 122t101 331t-101 320.5t-248 111.5 q-129 0 -219 -84.5t-90 -177.5v-463z" />
<glyph unicode="q" horiz-adv-x="1187" d="M102 547q0 130 35 232.5t96 167.5t142 98.5t176 33.5q42 0 80.5 -6.5t70.5 -20t55.5 -25t48 -32t36 -30t31 -30.5t20.5 -22v146h125v-1389h-129v512q-38 -97 -120.5 -149.5t-195.5 -52.5q-215 0 -343 153t-128 414zM238 541q0 -210 100 -333.5t258 -123.5q73 0 131 29 t92 75.5t52 100.5t18 110v299q0 103 -88 189t-217 86q-148 0 -247 -110.5t-99 -321.5z" />
<glyph unicode="r" horiz-adv-x="753" d="M180 0v1059h123v-178q42 87 146 142.5t249 55.5v-127h-21q-177 0 -270 -63q-98 -67 -98 -187v-702h-129z" />
<glyph unicode="s" horiz-adv-x="1034" d="M104 295h129q21 -102 98.5 -153.5t194.5 -51.5q120 0 191 50t71 139q0 123 -159 167l-223 62q-129 36 -196.5 97.5t-68.5 168.5q0 147 106 226t277 79q160 0 259.5 -77.5t105.5 -213.5h-125q-11 83 -74.5 132t-165.5 49q-46 0 -88 -9t-82 -29.5t-64 -60t-24 -92.5 q0 -62 45 -97t140 -60l233 -64q82 -21 135 -66.5t73.5 -96t20.5 -109.5q0 -97 -54 -167.5t-140 -104t-193 -33.5q-172 0 -287 82t-135 233z" />
<glyph unicode="t" horiz-adv-x="710" d="M57 958v101h174l27 303h104v-303h242v-101h-242v-700q0 -96 31 -124t117 -28h102v-96q-40 -12 -141 -12q-137 0 -189.5 58t-52.5 190v712h-172z" />
<glyph unicode="u" horiz-adv-x="1181" d="M172 350v713h129v-705q0 -74 26.5 -128.5t70.5 -83.5t91 -42.5t97 -13.5q58 0 110 17.5t93.5 51t66.5 89t25 125.5v690h131l-2 -1061h-109l-12 199q-27 -103 -117 -162q-87 -57 -196 -57h-7q-56 1 -109.5 12.5t-106.5 39.5t-92.5 68.5t-64 104.5t-24.5 143z" />
<glyph unicode="v" horiz-adv-x="1017" d="M61 1059h129l308 -901h22l314 901h122l-372 -1059h-148z" />
<glyph unicode="w" horiz-adv-x="1595" d="M72 1059h125l264 -899h22l262 899h105l276 -897h21l252 897h127l-305 -1059h-160l-264 858l-248 -858h-160z" />
<glyph unicode="x" horiz-adv-x="1130" d="M80 0l407 549l-376 510h149l305 -412l305 412h150l-379 -510l410 -549h-150l-338 453l-336 -453h-147z" />
<glyph unicode="y" horiz-adv-x="1069" d="M61 1059h136l344 -887l340 887h127l-457 -1180q-47 -118 -122.5 -167.5t-182.5 -49.5q-49 0 -85 5t-47 11l-12 5v86h111h16q85 0 129 31q47 33 72 91l45 123z" />
<glyph unicode="z" horiz-adv-x="1015" d="M102 0v94l641 869h-598v96h752v-98l-639 -863h651v-98h-807z" />
<glyph unicode="{" horiz-adv-x="608" d="M14 530v95q114 1 173 60.5t59 154.5v448q0 88 63 140.5t174 52.5h78v-97h-65q-72 0 -99.5 -24t-27.5 -80v-451q0 -112 -56 -173.5t-139 -69.5q-8 -1 -11.5 -4t-0.5 -6.5t12 -4.5q84 -7 139.5 -65t55.5 -174v-457q0 -59 28 -83.5t101 -24.5h63v-97h-76q-117 0 -178 54 t-61 145v457q0 80 -61.5 142t-170.5 62z" />
<glyph unicode="|" horiz-adv-x="507" d="M205 -330v2022h108v-2022h-108z" />
<glyph unicode="}" horiz-adv-x="622" d="M45 -233h64q72 0 99.5 25t27.5 83v457q1 116 56 174t138 65q9 1 12 4.5t-0.5 6.5t-11.5 4q-83 8 -138 69.5t-56 173.5v451q0 56 -27.5 80t-99.5 24h-64v97h78q111 0 174 -52.5t63 -140.5v-448q0 -95 59 -154.5t173 -60.5v-95q-109 0 -170.5 -62t-61.5 -142v-457 q0 -90 -62 -144.5t-177 -54.5h-76v97z" />
<glyph unicode="~" horiz-adv-x="1114" d="M121 731q39 36 68 58t78.5 40.5t105.5 18.5q61 0 127 -24.5t130 -49t122 -24.5q70 0 115 26t83 72l39 -88q-31 -46 -92 -77.5t-147 -31.5q-54 0 -106.5 15t-88 33.5t-84 33.5t-94.5 15q-120 0 -217 -101z" />
<glyph unicode="&#xa1;" horiz-adv-x="477" d="M154 864v195h168v-195h-168zM158 -330l32 1055h95l34 -1055h-161z" />
<glyph unicode="&#xa2;" horiz-adv-x="1091" d="M109 752q0 230 112 380.5t303 172.5v176h109v-176q137 -14 235.5 -98.5t122.5 -225.5l-123 -4q-29 109 -103.5 163t-174.5 54q-162 0 -257 -119.5t-95 -318.5q0 -202 94 -322.5t256 -120.5q105 0 181 57t99 160h123q-28 -147 -125 -227.5t-233 -93.5v-209h-109v209 q-191 20 -303 167.5t-112 375.5z" />
<glyph unicode="&#xa3;" horiz-adv-x="1216" d="M25 0v117h81q82 0 136.5 80.5t54.5 236.5q0 111 -27 277h-204v96h190l-37 160q-29 124 -7.5 223t79.5 168t142 106t181 37q131 0 240 -63t147 -152l-118 -49q-36 73 -96.5 108t-157.5 35q-123 0 -203 -68.5t-80 -189.5q0 -149 53 -313h349v-96h-334q25 -155 20 -246 q-2 -225 -119 -348h400q112 0 179 38.5t101 129.5l115 -37q-91 -250 -389 -250h-696z" />
<glyph unicode="&#xa4;" horiz-adv-x="1062" d="M121 414l115 112q-70 98 -70 219q0 115 61 201q9 19 -2 27l-102 104l74 74l114 -117q92 70 215 70q115 0 201 -62q16 -9 27 2l106 109l74 -76l-119 -119q70 -99 70 -213q0 -117 -62 -200q-8 -15 2 -25l111 -104l-74 -76l-119 117q-100 -74 -215 -74t-204 61 q-15 12 -27 -2l-104 -106zM281 745q0 -102 71.5 -175.5t177.5 -73.5q104 0 176 74t72 175q0 100 -72 175t-176 75q-105 0 -177 -75t-72 -175z" />
<glyph unicode="&#xa5;" horiz-adv-x="1200" d="M20 1481h170l422 -723l424 723h142l-482 -799h299v-94h-315v-195h315v-96h-315v-297h-150v295h-315v96h315v195h-315v96h279z" />
<glyph unicode="&#xa6;" horiz-adv-x="507" d="M205 -330v813h108v-813h-108zM205 879v813h108v-813h-108z" />
<glyph unicode="&#xa7;" horiz-adv-x="978" d="M84 96l92 51q52 -83 139.5 -133.5t196.5 -50.5q110 0 180 44t70 122q0 61 -48 111t-171 100l-185 72q-129 50 -188 120t-59 164q0 92 59 161t154 104q-121 61 -165 125t-44 145q0 117 101 193.5t265 76.5q123 0 222.5 -57.5t156.5 -143.5l-94 -53q-117 152 -274 152 q-117 0 -183.5 -43.5t-66.5 -116.5q0 -111 182 -186l176 -72q151 -61 219 -140t68 -182q0 -95 -51.5 -156t-139.5 -104q97 -55 146 -117.5t49 -144.5q0 -121 -105.5 -199.5t-275.5 -78.5q-136 0 -253 65.5t-173 171.5zM233 711q0 -63 39 -105.5t150 -87.5l133 -57 q83 -6 146 48.5t61 131.5q0 75 -38 124.5t-146 92.5l-121 47q-91 -7 -157.5 -65t-66.5 -129z" />
<glyph unicode="&#xa8;" horiz-adv-x="444" d="M0 1303v157h145v-157h-145zM299 1303v157h145v-157h-145z" />
<glyph unicode="&#xa9;" horiz-adv-x="1656" d="M66 741q0 154 60 294.5t161.5 242.5t243 162.5t296.5 60.5q154 0 294.5 -60.5t242.5 -162.5t162.5 -242.5t60.5 -294.5q0 -156 -60.5 -297.5t-162.5 -242.5t-242.5 -161t-294.5 -60q-156 0 -296.5 59.5t-242.5 161.5t-162 243t-60 297zM178 741q0 -194 88 -345 t235.5 -230.5t325.5 -79.5q130 0 248 47t207.5 130.5t142 207.5t52.5 270q0 144 -52.5 268t-141.5 208t-207.5 132t-248.5 48q-178 0 -325.5 -81t-235.5 -232t-88 -343zM449 745q0 190 107 310.5t275 120.5q202 0 330 -207l-104 -39q-88 149 -217 149q-119 0 -194 -90.5 t-75 -238.5q0 -152 74.5 -244t194.5 -92q77 0 140 43.5t101 117.5l84 -38q-55 -99 -140 -159.5t-194 -60.5q-171 0 -276.5 118t-105.5 310z" />
<glyph unicode="&#xaa;" horiz-adv-x="829" d="M102 993q0 96 83.5 151.5t242.5 67.5l129 13v49q0 141 -166 141q-63 0 -106 -22t-78 -80l-88 28q77 154 280 154q125 0 190.5 -59.5t65.5 -165.5v-232q0 -64 9 -135l12 -82h-105l-14 97q-57 -57 -110.5 -83t-120.5 -26q-104 0 -164 49t-60 135zM207 997q0 -51 40 -80.5 t107 -29.5q87 0 150 57q53 47 53 94v115l-106 -8q-244 -18 -244 -148z" />
<glyph unicode="&#xab;" horiz-adv-x="880" d="M72 514l282 381h80l-227 -381l223 -364h-78zM418 514l282 381h80l-227 -381l225 -364h-80z" />
<glyph unicode="&#xac;" horiz-adv-x="1097" d="M129 688v109l840 2v-393h-113l-2 284z" />
<glyph unicode="&#xad;" horiz-adv-x="761" d="M129 473v111l500 2v-111z" />
<glyph unicode="&#xae;" horiz-adv-x="1087" d="M66 1024q0 198 139 337.5t338 139.5q97 0 184.5 -37.5t151.5 -101.5t101.5 -152.5t37.5 -185.5t-37.5 -185t-101.5 -151.5t-151.5 -101t-184.5 -37.5q-199 0 -338 138.5t-139 336.5zM152 1024q0 -180 107.5 -287.5t283.5 -107.5q174 0 282.5 107.5t108.5 287.5 q0 179 -109 288t-282 109q-175 0 -283 -109t-108 -288zM365 784v473h208q74 0 115 -30t41 -86q0 -93 -100 -127l90 -230h-78l-84 224h-119v-224h-73zM438 1071h123q92 0 92 62q0 63 -98 63h-117v-125z" />
<glyph unicode="&#xaf;" horiz-adv-x="600" d="M23 1346v102h550v-102h-550z" />
<glyph unicode="&#xb0;" horiz-adv-x="935" d="M158 1403q0 136 87 223.5t222 87.5q133 0 221 -87.5t88 -223.5q0 -134 -88 -221.5t-221 -87.5q-135 0 -222 87t-87 222zM258 1401q2 -96 57.5 -154.5t149.5 -58.5q93 0 148 58.5t55 154.5q0 95 -55.5 154t-149.5 59q-93 0 -150 -59.5t-55 -153.5z" />
<glyph unicode="&#xb1;" horiz-adv-x="1097" d="M129 145v107l840 2v-107zM129 836v108h367v367h108v-365h365v-108h-365v-365h-106v363h-369z" />
<glyph unicode="&#xb2;" horiz-adv-x="712" d="M49 1450q3 120 86.5 200.5t229.5 80.5q132 0 210 -70t78 -186q0 -68 -27 -123t-70.5 -92t-95.5 -69t-104.5 -61.5t-96 -62t-70.5 -78.5t-27 -102v-25h500v-76h-590v95q0 68 27.5 123.5t71 93.5t96 70.5t105.5 63t96.5 63t71 78.5t27.5 102q0 80 -57 129t-150 49 q-101 0 -161 -56t-66 -147h-84z" />
<glyph unicode="&#xb3;" horiz-adv-x="796" d="M51 1042h86q12 -91 74.5 -142.5t159.5 -51.5q112 0 179.5 52.5t67.5 137.5q0 94 -74.5 145.5t-189.5 53.5h-80v74l78 2q100 0 170 54t70 126q0 67 -58.5 115.5t-160.5 48.5q-87 0 -153.5 -53.5t-67.5 -149.5h-84q0 124 88 200.5t215 76.5q140 0 225.5 -64t85.5 -172 q0 -70 -46.5 -126.5t-135.5 -88.5q100 -28 154.5 -90t54.5 -150q0 -122 -95 -195t-247 -71q-134 2 -222 75t-94 193z" />
<glyph unicode="&#xb4;" horiz-adv-x="565" d="M18 1305l490 194l37 -117l-502 -155z" />
<glyph unicode="&#xb5;" horiz-adv-x="1196" d="M172 -338v1423h133v-776q0 -84 69 -144.5t165 -60.5q166 0 354 201v780h133l-2 -1085h-125v168q-112 -94 -190 -132.5t-164 -39.5q-150 -3 -240 80v-414h-133z" />
<glyph unicode="&#xb6;" horiz-adv-x="1116" d="M102 1030q0 86 29.5 165.5t86 144t147.5 103t204 38.5h377v-88h-123v-1563h-94v1563h-94v-1563h-96v778q-200 3 -318.5 125.5t-118.5 296.5z" />
<glyph unicode="&#xb7;" horiz-adv-x="436" d="M119 651v191h194v-191h-194z" />
<glyph unicode="&#xb8;" horiz-adv-x="425" d="M20 -365l27 68q54 -47 131 -47q115 0 115 82q0 44 -38.5 66.5t-121.5 25.5q-15 0 -8 10l74 170h82l-52 -125q92 -6 132 -47t40 -98q0 -73 -59.5 -113.5t-148.5 -40.5q-103 0 -173 49z" />
<glyph unicode="&#xb9;" horiz-adv-x="598" d="M10 1542v64q85 0 131 11t62.5 32.5t17.5 60.5h64v-932h-86v764h-189z" />
<glyph unicode="&#xba;" horiz-adv-x="831" d="M102 1153q0 156 86 251t228 95q144 0 228.5 -95t84.5 -251q0 -152 -83.5 -246t-229.5 -94q-148 0 -231 93.5t-83 246.5zM211 1159q0 -125 52.5 -195.5t152.5 -70.5t152.5 70.5t52.5 195.5q0 120 -53 189t-152 69t-152 -69t-53 -189z" />
<glyph unicode="&#xbb;" horiz-adv-x="878" d="M96 895h80l283 -381l-281 -364h-78l226 364zM442 895h80l283 -381l-281 -364h-78l226 364z" />
<glyph unicode="&#xbc;" horiz-adv-x="1818" d="M10 1329v64q85 0 131 11t62.5 32.5t17.5 60.5h64v-932h-86v764h-189zM301 -8l999 1505h99l-996 -1505h-102zM1028 254v84l438 594h86v-600h160v-78h-160v-254h-82v254h-442zM1108 332h358v481z" />
<glyph unicode="&#xbd;" horiz-adv-x="1904" d="M10 1329v64q85 0 131 11t62.5 32.5t17.5 60.5h64v-932h-86v764h-189zM301 -8l999 1505h99l-996 -1505h-102zM1186 664q3 120 86 200t229 80q132 0 210.5 -70t78.5 -186q0 -68 -27 -123t-70.5 -92t-96 -69t-105 -61.5t-96 -62t-70.5 -78.5t-27 -102v-24h500v-76h-590v94 q0 68 27.5 123.5t71 93.5t96.5 70.5t106 63t96.5 63t71 78.5t27.5 102q0 80 -57 129t-150 49q-101 0 -161 -55.5t-66 -146.5h-84z" />
<glyph unicode="&#xbe;" horiz-adv-x="2017" d="M51 827h86q12 -91 74.5 -142.5t159.5 -51.5q112 0 179.5 52.5t67.5 137.5q0 94 -74.5 145.5t-189.5 53.5h-80v74l78 2q100 0 170 54t70 126q0 67 -58.5 115.5t-160.5 48.5q-87 0 -153.5 -53.5t-67.5 -149.5h-84q0 124 88 200.5t215 76.5q140 0 225.5 -64t85.5 -172 q0 -70 -46.5 -126.5t-135.5 -88.5q100 -28 154.5 -90t54.5 -150q0 -122 -95 -195t-247 -71q-134 2 -222 75t-94 193zM500 -8l999 1505h98l-995 -1505h-102zM1229 254v84l438 594h86v-600h160v-78h-160v-254h-82v254h-442zM1309 332h358v481z" />
<glyph unicode="&#xbf;" horiz-adv-x="1032" d="M63 10q0 69 23 127t59.5 100t81 81t89 79t81 84.5t59.5 107t23 136.5h119q0 -82 -22 -150.5t-57 -116.5t-77 -90.5t-84.5 -80t-77.5 -76t-57 -89t-22 -108.5q0 -115 82 -183.5t217 -68.5q109 0 210.5 61t135.5 146l123 -45q-66 -128 -191 -201t-278 -73 q-202 0 -319.5 98.5t-117.5 261.5zM453 864v195h172v-195h-172z" />
<glyph unicode="&#xc0;" d="M98 0l541 1481h158l538 -1481h-135l-160 438h-645l-162 -438h-135zM422 1804l37 117l491 -195l-26 -77zM432 565h567l-280 785z" />
<glyph unicode="&#xc1;" d="M98 0l541 1481h158l538 -1481h-135l-160 438h-645l-162 -438h-135zM432 565h567l-280 785zM455 1726l489 195l37 -117l-502 -155z" />
<glyph unicode="&#xc2;" d="M98 0l541 1481h158l538 -1481h-135l-160 438h-645l-162 -438h-135zM422 1694l250 213h96l246 -213h-148l-149 129l-156 -129h-139zM432 565h567l-280 785z" />
<glyph unicode="&#xc3;" d="M98 0l541 1481h158l538 -1481h-135l-160 438h-645l-162 -438h-135zM432 565h567l-280 785zM436 1821q39 33 73 50t83 17q48 0 128 -27.5t124 -27.5q37 0 64 12t65 39l31 -86q-76 -53 -162 -53q-56 0 -129 25.5t-113 25.5q-16 0 -31 -3t-24 -5t-24 -10t-18 -9.5t-21 -13.5 l-17 -12z" />
<glyph unicode="&#xc4;" d="M98 0l541 1481h158l538 -1481h-135l-160 438h-645l-162 -438h-135zM432 565h567l-280 785zM492 1724v158h145v-158h-145zM791 1724v158h145v-158h-145z" />
<glyph unicode="&#xc5;" d="M98 0l541 1481h158l538 -1481h-135l-160 438h-645l-162 -438h-135zM432 565h567l-280 785zM512 1823q0 82 60 139t145 57q86 0 145.5 -57.5t59.5 -142.5q0 -87 -59 -146t-146 -59t-146 60t-59 149zM600 1819q0 -46 34.5 -81.5t80.5 -35.5t79 35t33 82q0 49 -32 80.5 t-80 31.5q-47 0 -81 -32t-34 -80z" />
<glyph unicode="&#xc6;" horiz-adv-x="1929" d="M0 0l834 1481h929v-119h-708v-555h549v-119h-549v-569h735v-119h-883v446h-520l-252 -446h-135zM442 565h465v811z" />
<glyph unicode="&#xc7;" horiz-adv-x="1402" d="M135 739q0 359 156.5 560.5t441.5 201.5q226 0 375 -123t170 -303l-139 -12q-29 145 -131.5 231t-272.5 86q-225 0 -339.5 -162t-114.5 -481q0 -313 116.5 -475t350.5 -162q145 0 249 81t136 222l139 -18q-19 -165 -157.5 -280t-334.5 -125l-39 -95q92 -6 132 -47t40 -98 q0 -73 -59.5 -113.5t-148.5 -40.5q-103 0 -173 49l27 68q54 -47 131 -47q115 0 115 82q0 44 -38.5 66.5t-121.5 25.5q-15 0 -8 10l61 142q-269 17 -416 215.5t-147 541.5z" />
<glyph unicode="&#xc8;" horiz-adv-x="1255" d="M205 0v1481h887v-121h-758v-551h694v-121h-694v-563l782 -2v-123h-911zM358 1804l37 117l492 -195l-27 -77z" />
<glyph unicode="&#xc9;" horiz-adv-x="1255" d="M205 0v1481h887v-121h-758v-551h694v-121h-694v-563l782 -2v-123h-911zM389 1726l490 195l36 -117l-501 -155z" />
<glyph unicode="&#xca;" horiz-adv-x="1255" d="M205 0v1481h887v-121h-758v-551h694v-121h-694v-563l782 -2v-123h-911zM356 1694l250 213h96l246 -213h-147l-148 129l-157 -129h-140z" />
<glyph unicode="&#xcb;" horiz-adv-x="1255" d="M205 0v1481h887v-121h-758v-551h694v-121h-694v-563l782 -2v-123h-911zM428 1724v158h145v-158h-145zM727 1724v158h145v-158h-145z" />
<glyph unicode="&#xcc;" horiz-adv-x="528" d="M-25 1804l37 117l492 -195l-27 -77zM205 0v1481h129v-1481h-129z" />
<glyph unicode="&#xcd;" horiz-adv-x="528" d="M6 1726l490 195l36 -117l-501 -155zM205 0v1481h129v-1481h-129z" />
<glyph unicode="&#xce;" horiz-adv-x="528" d="M-27 1694l250 213h96l246 -213h-147l-148 129l-157 -129h-140zM205 0v1481h129v-1481h-129z" />
<glyph unicode="&#xcf;" horiz-adv-x="528" d="M45 1724v158h145v-158h-145zM205 0v1481h129v-1481h-129zM344 1724v158h145v-158h-145z" />
<glyph unicode="&#xd0;" horiz-adv-x="1400" d="M72 686v115h143v680q1 0 48.5 -0.5t117 -1t123.5 -0.5q404 -3 588 -181.5t184 -545.5q0 -383 -195 -567.5t-602 -184.5h-264v686h-143zM350 121h127q164 0 284.5 33.5t206.5 106.5t128.5 193.5t42.5 290.5q0 175 -42.5 295.5t-129 190.5t-203 100.5t-277.5 30.5h-137 v-561h365v-115h-365v-565z" />
<glyph unicode="&#xd1;" horiz-adv-x="1488" d="M205 0v1481h117l841 -1243v1243h131v-1481h-116l-844 1249v-1249h-129zM467 1821q39 33 73 50t83 17q47 0 127 -27.5t124 -27.5q37 0 65 12.5t65 38.5l30 -86q-76 -53 -162 -53q-56 0 -128 25.5t-113 25.5q-16 0 -31 -3t-24 -5t-24 -10t-18 -9.5t-20 -13.5l-18 -12z" />
<glyph unicode="&#xd2;" horiz-adv-x="1509" d="M135 733q0 368 165.5 568t457.5 200q289 0 452.5 -199.5t163.5 -564.5q0 -362 -163.5 -559.5t-454.5 -197.5q-293 0 -457 196t-164 557zM279 737q0 -319 124 -478t357 -159q231 0 351 158t120 479q0 322 -122 482.5t-351 160.5q-231 0 -355 -161t-124 -482zM465 1804 l37 117l491 -195l-26 -77z" />
<glyph unicode="&#xd3;" horiz-adv-x="1509" d="M135 733q0 368 165.5 568t457.5 200q289 0 452.5 -199.5t163.5 -564.5q0 -362 -163.5 -559.5t-454.5 -197.5q-293 0 -457 196t-164 557zM279 737q0 -319 124 -478t357 -159q231 0 351 158t120 479q0 322 -122 482.5t-351 160.5q-231 0 -355 -161t-124 -482zM496 1726 l489 195l37 -117l-502 -155z" />
<glyph unicode="&#xd4;" horiz-adv-x="1509" d="M135 733q0 368 165.5 568t457.5 200q289 0 452.5 -199.5t163.5 -564.5q0 -362 -163.5 -559.5t-454.5 -197.5q-293 0 -457 196t-164 557zM279 737q0 -319 124 -478t357 -159q231 0 351 158t120 479q0 322 -122 482.5t-351 160.5q-231 0 -355 -161t-124 -482zM463 1694 l250 213h96l246 -213h-148l-147 129l-158 -129h-139z" />
<glyph unicode="&#xd5;" horiz-adv-x="1509" d="M135 733q0 368 165.5 568t457.5 200q289 0 452.5 -199.5t163.5 -564.5q0 -362 -163.5 -559.5t-454.5 -197.5q-293 0 -457 196t-164 557zM279 737q0 -319 124 -478t357 -159q231 0 351 158t120 479q0 322 -122 482.5t-351 160.5q-231 0 -355 -161t-124 -482zM477 1821 q39 33 73 50t83 17q47 0 127 -27.5t125 -27.5q37 0 64 12t65 39l30 -86q-76 -53 -161 -53q-55 0 -128 25.5t-114 25.5q-16 0 -31 -3t-24 -5t-24 -10t-18 -9.5t-20 -13.5l-18 -12z" />
<glyph unicode="&#xd6;" horiz-adv-x="1509" d="M135 733q0 368 165.5 568t457.5 200q289 0 452.5 -199.5t163.5 -564.5q0 -362 -163.5 -559.5t-454.5 -197.5q-293 0 -457 196t-164 557zM279 737q0 -319 124 -478t357 -159q231 0 351 158t120 479q0 322 -122 482.5t-351 160.5q-231 0 -355 -161t-124 -482zM535 1724v158 h145v-158h-145zM834 1724v158h145v-158h-145z" />
<glyph unicode="&#xd7;" horiz-adv-x="1064" d="M129 1067l78 76l323 -322l324 326l78 -76l-324 -328l326 -323l-78 -78l-326 324l-321 -324l-78 78l322 323z" />
<glyph unicode="&#xd8;" horiz-adv-x="1509" d="M66 55l176 199q-109 183 -109 479q0 368 164.5 568t456.5 200q276 0 436 -180l166 184l86 -78l-180 -204q110 -188 110 -486q0 -362 -164.5 -559.5t-455.5 -197.5q-281 0 -437 176l-163 -183zM295 766q-3 -233 59 -393l742 848q-111 159 -342 159q-453 0 -459 -614z M408 258q119 -158 348 -158q223 0 335.5 148.5t116.5 453.5q3 234 -59 402z" />
<glyph unicode="&#xd9;" horiz-adv-x="1429" d="M205 508v973h137v-1004q0 -379 375 -379q189 0 287 95t98 284v1004h129v-998q0 -250 -126.5 -376.5t-387.5 -126.5q-265 0 -388.5 130.5t-123.5 397.5zM426 1804l37 117l491 -195l-26 -77z" />
<glyph unicode="&#xda;" horiz-adv-x="1429" d="M205 508v973h137v-1004q0 -379 375 -379q189 0 287 95t98 284v1004h129v-998q0 -250 -126.5 -376.5t-387.5 -126.5q-265 0 -388.5 130.5t-123.5 397.5zM457 1726l489 195l37 -117l-502 -155z" />
<glyph unicode="&#xdb;" horiz-adv-x="1429" d="M205 508v973h137v-1004q0 -379 375 -379q189 0 287 95t98 284v1004h129v-998q0 -250 -126.5 -376.5t-387.5 -126.5q-265 0 -388.5 130.5t-123.5 397.5zM424 1694l250 213h96l246 -213h-148l-147 129l-158 -129h-139z" />
<glyph unicode="&#xdc;" horiz-adv-x="1429" d="M205 508v973h137v-1004q0 -379 375 -379q189 0 287 95t98 284v1004h129v-998q0 -250 -126.5 -376.5t-387.5 -126.5q-265 0 -388.5 130.5t-123.5 397.5zM496 1724v158h145v-158h-145zM795 1724v158h145v-158h-145z" />
<glyph unicode="&#xdd;" horiz-adv-x="1161" d="M18 1481h144l422 -725l415 725h144l-494 -848v-633h-131v635zM326 1731l489 194l37 -117l-502 -155z" />
<glyph unicode="&#xde;" horiz-adv-x="1318" d="M205 0v1481h147v-316h355q162 0 281 -40.5t190 -130.5t71 -222q0 -110 -38.5 -192t-109.5 -131.5t-165 -74t-211 -24.5h-373v-350h-147zM352 467h363q180 0 280.5 74.5t100.5 232.5q0 275 -396 275h-348v-582z" />
<glyph unicode="&#xdf;" horiz-adv-x="1222" d="M61 948v101h144q2 197 117.5 314.5t316.5 117.5q88 0 153.5 -23t102.5 -63t54.5 -87t17.5 -100q0 -26 -4.5 -49.5t-10 -42t-19.5 -37t-22 -30t-30.5 -28t-31.5 -23.5t-37.5 -22t-37.5 -19.5l-41 -20.5q-85 -46 -112 -70t-27 -65t26.5 -59.5t108.5 -45.5q132 -46 186 -75 q185 -102 185 -299q0 -161 -110 -251.5t-277 -90.5q-74 0 -153 19t-130 52l55 94q55 -31 102 -47t111 -16q127 0 202 60.5t75 166.5q0 35 -9 64.5t-21 51t-36 42t-43 32.5t-53.5 27t-56 22.5t-60.5 20.5q-34 11 -52 18t-48 20.5t-47 28t-35 36t-26.5 49.5t-8.5 63 q0 72 43.5 121.5t145.5 104.5q8 4 30.5 17t31.5 18t28.5 18t28 21.5t21.5 23.5t19 28.5t10.5 32t4.5 39.5q0 79 -58 124.5t-161 45.5q-131 0 -209 -79t-78 -230v-1069h-129v948h-146z" />
<glyph unicode="&#xe0;" horiz-adv-x="1105" d="M102 279q0 177 119 260t387 92l217 6v94q0 114 -75.5 178t-200.5 64q-108 0 -185.5 -53.5t-95.5 -151.5h-123q8 131 119 221t291 90q186 0 291.5 -92t105.5 -252v-735h-112l-11 199q-111 -219 -383 -219q-157 0 -250.5 80.5t-93.5 218.5zM233 289q0 -96 67.5 -151.5 t178.5 -55.5q80 0 160.5 37.5t133 99.5t52.5 125v197l-182 -4q-221 -4 -315.5 -61.5t-94.5 -186.5zM262 1382l37 117l492 -194l-27 -78z" />
<glyph unicode="&#xe1;" horiz-adv-x="1105" d="M102 279q0 177 119 260t387 92l217 6v94q0 114 -75.5 178t-200.5 64q-108 0 -185.5 -53.5t-95.5 -151.5h-123q8 131 119 221t291 90q186 0 291.5 -92t105.5 -252v-735h-112l-11 199q-111 -219 -383 -219q-157 0 -250.5 80.5t-93.5 218.5zM233 289q0 -96 67.5 -151.5 t178.5 -55.5q80 0 160.5 37.5t133 99.5t52.5 125v197l-182 -4q-221 -4 -315.5 -61.5t-94.5 -186.5zM293 1305l489 194l37 -117l-502 -155z" />
<glyph unicode="&#xe2;" horiz-adv-x="1105" d="M102 279q0 177 119 260t387 92l217 6v94q0 114 -75.5 178t-200.5 64q-108 0 -185.5 -53.5t-95.5 -151.5h-123q8 131 119 221t291 90q186 0 291.5 -92t105.5 -252v-735h-112l-11 199q-111 -219 -383 -219q-157 0 -250.5 80.5t-93.5 218.5zM233 289q0 -96 67.5 -151.5 t178.5 -55.5q80 0 160.5 37.5t133 99.5t52.5 125v197l-182 -4q-221 -4 -315.5 -61.5t-94.5 -186.5zM260 1272l250 213h96l246 -213h-147l-148 129l-158 -129h-139z" />
<glyph unicode="&#xe3;" horiz-adv-x="1105" d="M102 279q0 177 119 260t387 92l217 6v94q0 114 -75.5 178t-200.5 64q-108 0 -185.5 -53.5t-95.5 -151.5h-123q8 131 119 221t291 90q186 0 291.5 -92t105.5 -252v-735h-112l-11 199q-111 -219 -383 -219q-157 0 -250.5 80.5t-93.5 218.5zM233 289q0 -96 67.5 -151.5 t178.5 -55.5q80 0 160.5 37.5t133 99.5t52.5 125v197l-182 -4q-221 -4 -315.5 -61.5t-94.5 -186.5zM274 1399q39 33 73 50t83 17q48 0 128 -27.5t124 -27.5q37 0 64 12t65 39l31 -86q-76 -53 -162 -53q-56 0 -128.5 25.5t-113.5 25.5q-16 0 -31 -3t-24 -5t-24 -10t-18 -9.5 t-21 -13.5l-17 -12z" />
<glyph unicode="&#xe4;" horiz-adv-x="1105" d="M102 279q0 177 119 260t387 92l217 6v94q0 114 -75.5 178t-200.5 64q-108 0 -185.5 -53.5t-95.5 -151.5h-123q8 131 119 221t291 90q186 0 291.5 -92t105.5 -252v-735h-112l-11 199q-111 -219 -383 -219q-157 0 -250.5 80.5t-93.5 218.5zM233 289q0 -96 67.5 -151.5 t178.5 -55.5q80 0 160.5 37.5t133 99.5t52.5 125v197l-182 -4q-221 -4 -315.5 -61.5t-94.5 -186.5zM332 1303v157h145v-157h-145zM631 1303v157h145v-157h-145z" />
<glyph unicode="&#xe5;" horiz-adv-x="1105" d="M102 279q0 177 119 260t387 92l217 6v94q0 114 -75.5 178t-200.5 64q-108 0 -185.5 -53.5t-95.5 -151.5h-123q8 131 119 221t291 90q186 0 291.5 -92t105.5 -252v-735h-112l-11 199q-111 -219 -383 -219q-157 0 -250.5 80.5t-93.5 218.5zM233 289q0 -96 67.5 -151.5 t178.5 -55.5q80 0 160.5 37.5t133 99.5t52.5 125v197l-182 -4q-221 -4 -315.5 -61.5t-94.5 -186.5zM352 1401q0 82 60 139t145 57q86 0 145.5 -57.5t59.5 -142.5q0 -87 -59 -146t-146 -59t-146 60t-59 149zM440 1397q0 -46 34.5 -81.5t80.5 -35.5q47 0 80 35.5t33 81.5 q0 49 -32.5 80.5t-80.5 31.5q-47 0 -81 -32t-34 -80z" />
<glyph unicode="&#xe6;" horiz-adv-x="1884" d="M102 274q0 151 123 240t371 109l231 16v86q0 119 -71 185.5t-205 66.5q-183 0 -313 -189l-107 48q67 118 177 180.5t257 62.5q284 0 355 -215q60 106 159.5 160.5t231.5 54.5q214 0 342.5 -153t128.5 -426l-834 -2q0 -101 48.5 -196.5t135 -156.5t185.5 -61q56 0 105 12 t82 29t65 45t50.5 50t41.5 54l92 -53q-63 -112 -179.5 -176.5t-266.5 -64.5q-82 0 -151 21t-119 59t-80 70t-60 73q-6 12 -12 0q-31 -36 -54 -60t-66 -58t-86.5 -54.5t-107 -35.5t-135.5 -15q-156 0 -245 78.5t-89 215.5zM236 283q0 -94 65 -149.5t178 -51.5 q145 6 246.5 83.5t101.5 182.5v197l-194 -15q-397 -30 -397 -247zM952 594l697 -2q0 159 -96 272t-244 113q-152 0 -254 -105.5t-103 -277.5z" />
<glyph unicode="&#xe7;" horiz-adv-x="1087" d="M102 524q0 247 128 401t343 154q155 0 270 -85t142 -240l-123 -4q-30 109 -104 163t-176 54q-161 0 -256 -120t-95 -319q0 -202 94.5 -322t256.5 -120q105 0 181 57t99 160h121q-28 -151 -130.5 -232t-244.5 -89l-39 -97q92 -6 132 -47t40 -98q0 -73 -59.5 -113.5 t-149.5 -40.5q-102 0 -172 49l27 68q54 -47 131 -47q115 0 115 82q0 44 -38.5 66.5t-121.5 25.5q-15 0 -8 10l61 142q-195 17 -309.5 164.5t-114.5 377.5z" />
<glyph unicode="&#xe8;" horiz-adv-x="1118" d="M102 520q0 259 124 409t345 150q211 0 328 -137t117 -381v-63h-778q-1 -115 34.5 -205t115 -146.5t194.5 -56.5q228 0 297 205h127q-40 -158 -153 -236.5t-269 -78.5q-217 0 -349.5 144t-132.5 396zM238 600h649q0 166 -81.5 268.5t-236.5 102.5q-83 0 -149 -32.5 t-104.5 -86t-58.5 -118t-19 -134.5zM276 1382l37 117l492 -194l-27 -78z" />
<glyph unicode="&#xe9;" horiz-adv-x="1118" d="M102 520q0 259 124 409t345 150q211 0 328 -137t117 -381v-63h-778q-1 -115 34.5 -205t115 -146.5t194.5 -56.5q228 0 297 205h127q-40 -158 -153 -236.5t-269 -78.5q-217 0 -349.5 144t-132.5 396zM238 600h649q0 166 -81.5 268.5t-236.5 102.5q-83 0 -149 -32.5 t-104.5 -86t-58.5 -118t-19 -134.5zM307 1305l490 194l37 -117l-502 -155z" />
<glyph unicode="&#xea;" horiz-adv-x="1118" d="M102 520q0 259 124 409t345 150q211 0 328 -137t117 -381v-63h-778q-1 -115 34.5 -205t115 -146.5t194.5 -56.5q228 0 297 205h127q-40 -158 -153 -236.5t-269 -78.5q-217 0 -349.5 144t-132.5 396zM238 600h649q0 166 -81.5 268.5t-236.5 102.5q-83 0 -149 -32.5 t-104.5 -86t-58.5 -118t-19 -134.5zM274 1272l250 213h97l245 -213h-147l-148 129l-157 -129h-140z" />
<glyph unicode="&#xeb;" horiz-adv-x="1118" d="M102 520q0 259 124 409t345 150q211 0 328 -137t117 -381v-63h-778q-1 -115 34.5 -205t115 -146.5t194.5 -56.5q228 0 297 205h127q-40 -158 -153 -236.5t-269 -78.5q-217 0 -349.5 144t-132.5 396zM238 600h649q0 166 -81.5 268.5t-236.5 102.5q-83 0 -149 -32.5 t-104.5 -86t-58.5 -118t-19 -134.5zM346 1303v157h146v-157h-146zM645 1303v157h146v-157h-146z" />
<glyph unicode="&#xec;" horiz-adv-x="505" d="M-41 1382l37 117l491 -194l-26 -78zM188 0v1059h131v-1059h-131z" />
<glyph unicode="&#xed;" horiz-adv-x="505" d="M-8 1305l489 194l37 -117l-502 -155zM188 0v1059h131v-1059h-131z" />
<glyph unicode="&#xee;" horiz-adv-x="505" d="M-43 1272l250 213h96l246 -213h-148l-147 129l-158 -129h-139zM188 0v1059h131v-1059h-131z" />
<glyph unicode="&#xef;" horiz-adv-x="505" d="M29 1303v157h145v-157h-145zM188 0v1059h131v-1059h-131zM328 1303v157h145v-157h-145z" />
<glyph unicode="&#xf0;" horiz-adv-x="1200" d="M102 504q0 233 136 383.5t346 150.5q179 0 290 -114q-92 208 -305 352l-329 -186l-43 69l297 166q-91 52 -240 111l94 67q129 -48 254 -117l213 119l37 -71l-174 -99q418 -285 418 -817q0 -241 -135 -389.5t-365 -148.5q-220 0 -357 147t-137 377zM238 508 q0 -183 102.5 -303.5t261.5 -120.5q158 0 259.5 120t101.5 304q0 183 -102.5 305.5t-258.5 122.5q-158 0 -261 -122.5t-103 -305.5z" />
<glyph unicode="&#xf1;" horiz-adv-x="1189" d="M180 0v1059h125v-154q44 76 133 124t211 48q163 0 267 -100t104 -287v-690h-129v682q0 135 -71.5 208t-194.5 73q-135 0 -225.5 -61.5t-90.5 -176.5v-725h-129zM336 1399q39 33 73 50t83 17q48 0 127 -27.5t124 -27.5q37 0 64 12t65 39l31 -86q-76 -53 -162 -53 q-55 0 -128 25.5t-113 25.5q-16 0 -31 -3t-24 -5t-24 -10t-18 -9.5t-21 -13.5l-17 -12z" />
<glyph unicode="&#xf2;" horiz-adv-x="1142" d="M102 522q0 250 126.5 403.5t344.5 153.5q219 0 343 -152.5t124 -400.5q0 -247 -125 -396.5t-344 -149.5q-221 0 -345 148t-124 394zM233 528q0 -198 88 -319t254 -121q164 0 249 120t85 320q0 201 -85.5 321t-250.5 120t-252.5 -121t-87.5 -320zM281 1382l36 117 l492 -194l-27 -78z" />
<glyph unicode="&#xf3;" horiz-adv-x="1142" d="M102 522q0 250 126.5 403.5t344.5 153.5q219 0 343 -152.5t124 -400.5q0 -247 -125 -396.5t-344 -149.5q-221 0 -345 148t-124 394zM233 528q0 -198 88 -319t254 -121q164 0 249 120t85 320q0 201 -85.5 321t-250.5 120t-252.5 -121t-87.5 -320zM313 1305l490 194 l37 -117l-502 -155z" />
<glyph unicode="&#xf4;" horiz-adv-x="1142" d="M102 522q0 250 126.5 403.5t344.5 153.5q219 0 343 -152.5t124 -400.5q0 -247 -125 -396.5t-344 -149.5q-221 0 -345 148t-124 394zM233 528q0 -198 88 -319t254 -121q164 0 249 120t85 320q0 201 -85.5 321t-250.5 120t-252.5 -121t-87.5 -320zM281 1272l249 213h97 l245 -213h-147l-147 129l-158 -129h-139z" />
<glyph unicode="&#xf5;" horiz-adv-x="1142" d="M102 522q0 250 126.5 403.5t344.5 153.5q219 0 343 -152.5t124 -400.5q0 -247 -125 -396.5t-344 -149.5q-221 0 -345 148t-124 394zM233 528q0 -198 88 -319t254 -121q164 0 249 120t85 320q0 201 -85.5 321t-250.5 120t-252.5 -121t-87.5 -320zM295 1399q39 33 73 50 t83 17q47 0 127 -27.5t124 -27.5q37 0 64 12t65 39l31 -86q-76 -53 -162 -53q-56 0 -128 25.5t-113 25.5q-16 0 -31 -3t-24 -5t-24 -10t-18 -9.5t-20 -13.5l-18 -12z" />
<glyph unicode="&#xf6;" horiz-adv-x="1142" d="M102 522q0 250 126.5 403.5t344.5 153.5q219 0 343 -152.5t124 -400.5q0 -247 -125 -396.5t-344 -149.5q-221 0 -345 148t-124 394zM233 528q0 -198 88 -319t254 -121q164 0 249 120t85 320q0 201 -85.5 321t-250.5 120t-252.5 -121t-87.5 -320zM350 1303v157h146v-157 h-146zM649 1303v157h146v-157h-146z" />
<glyph unicode="&#xf7;" horiz-adv-x="1097" d="M129 688v109l840 2v-109zM453 313v189h196v-189h-196zM453 987v191h196v-191h-196z" />
<glyph unicode="&#xf8;" horiz-adv-x="1171" d="M35 59l145 142q-74 133 -74 321q0 250 126.5 403.5t345.5 153.5q217 0 344 -155l145 141l66 -68l-158 -153q69 -135 69 -318q0 -247 -125 -396.5t-344 -149.5q-215 0 -339 143l-136 -133zM238 528q0 -137 38 -233l558 543q-88 131 -256 131q-165 0 -252.5 -121 t-87.5 -320zM326 209q91 -121 254 -121q164 0 247.5 119.5t83.5 320.5q0 134 -32 222z" />
<glyph unicode="&#xf9;" horiz-adv-x="1181" d="M172 350v713h129v-705q0 -74 26.5 -128.5t70.5 -83.5t91 -42.5t97 -13.5q58 0 110 17.5t93.5 51t66.5 89t25 125.5v690h131l-2 -1061h-109l-12 199q-27 -103 -116.5 -162t-203.5 -57q-56 1 -109.5 12.5t-106.5 39.5t-92.5 68.5t-64 104.5t-24.5 143zM295 1382l37 117 l491 -194l-26 -78z" />
<glyph unicode="&#xfa;" horiz-adv-x="1181" d="M172 350v713h129v-705q0 -74 26.5 -128.5t70.5 -83.5t91 -42.5t97 -13.5q58 0 110 17.5t93.5 51t66.5 89t25 125.5v690h131l-2 -1061h-109l-12 199q-27 -103 -116.5 -162t-203.5 -57q-56 1 -109.5 12.5t-106.5 39.5t-92.5 68.5t-64 104.5t-24.5 143zM328 1305l489 194 l37 -117l-502 -155z" />
<glyph unicode="&#xfb;" horiz-adv-x="1181" d="M172 350v713h129v-705q0 -74 26.5 -128.5t70.5 -83.5t91 -42.5t97 -13.5q58 0 110 17.5t93.5 51t66.5 89t25 125.5v690h131l-2 -1061h-109l-12 199q-27 -103 -116.5 -162t-203.5 -57q-56 1 -109.5 12.5t-106.5 39.5t-92.5 68.5t-64 104.5t-24.5 143zM295 1272l250 213h96 l246 -213h-148l-147 129l-158 -129h-139z" />
<glyph unicode="&#xfc;" horiz-adv-x="1181" d="M172 350v713h129v-705q0 -74 26.5 -128.5t70.5 -83.5t91 -42.5t97 -13.5q58 0 110 17.5t93.5 51t66.5 89t25 125.5v690h131l-2 -1061h-109l-12 199q-27 -103 -116.5 -162t-203.5 -57q-56 1 -109.5 12.5t-106.5 39.5t-92.5 68.5t-64 104.5t-24.5 143zM365 1303v157h145 v-157h-145zM664 1303v157h145v-157h-145z" />
<glyph unicode="&#xfd;" horiz-adv-x="1069" d="M61 1059h136l344 -887l340 887h127l-457 -1180q-47 -118 -122.5 -167.5t-182.5 -49.5q-49 0 -85 5t-47 11l-12 5v86h111q97 -3 144.5 30.5t72.5 91.5l45 123zM283 1305l489 194l37 -117l-502 -155z" />
<glyph unicode="&#xfe;" horiz-adv-x="1198" d="M180 -330v1811h127v-574q1 1 13.5 15.5t18 20.5t20.5 21.5t25.5 23.5t29.5 22t35.5 22t40 18.5t47 15.5t52.5 9t60 4q95 0 175.5 -33.5t141.5 -98.5t95.5 -167.5t34.5 -232.5q0 -261 -128 -414t-341 -153q-165 0 -289 100q-29 29 -29 -14v-396h-129zM309 221 q71 -68 141 -103.5t152 -35.5q161 0 260 121.5t99 337.5t-99 326t-248 110q-128 0 -216.5 -80t-88.5 -170v-506z" />
<glyph unicode="&#xff;" horiz-adv-x="1069" d="M61 1059h136l344 -887l340 887h127l-457 -1180q-47 -118 -122.5 -167.5t-182.5 -49.5q-49 0 -85 5t-47 11l-12 5v86h111q97 -3 144.5 30.5t72.5 91.5l45 123zM322 1303v157h145v-157h-145zM621 1303v157h145v-157h-145z" />
<glyph unicode="&#x152;" horiz-adv-x="2279" d="M135 733q0 369 166.5 568.5t462.5 199.5q326 0 469 -258l18 238h860v-119h-741v-555h565v-119h-565v-569h770v-119h-893l-14 238q-146 -258 -473 -258q-295 0 -460 196t-165 557zM291 737q0 -639 469 -639q229 0 341.5 157t112.5 482q0 645 -456 645q-230 0 -348.5 -161 t-118.5 -484z" />
<glyph unicode="&#x153;" horiz-adv-x="2027" d="M102 522q0 249 138.5 403t361.5 154q138 0 245.5 -65.5t166.5 -182.5q16 -28 28 0q59 116 166 182t240 66q223 0 349 -153.5t126 -425.5h-829q0 -172 108 -293t260 -121q223 0 340 188l94 -53q-76 -124 -184 -182.5t-258 -58.5q-135 0 -242.5 62t-169.5 173 q-14 33 -36 -6q-62 -109 -167.5 -169t-238.5 -60q-225 0 -361.5 149t-136.5 393zM238 526q0 -201 99 -320.5t265 -119.5t263.5 119t97.5 321q0 203 -99 325t-262 122q-166 0 -265 -121.5t-99 -325.5zM1098 594l696 -2q0 161 -95 272t-245 111q-156 0 -256.5 -107t-99.5 -274 z" />
<glyph unicode="&#x178;" horiz-adv-x="1161" d="M18 1481h144l422 -725l415 725h144l-494 -848v-633h-131v635zM365 1726v158h145v-158h-145zM664 1726v158h145v-158h-145z" />
<glyph unicode="&#x2c6;" horiz-adv-x="604" d="M6 1272l250 213h96l246 -213h-147l-148 129l-158 -129h-139z" />
<glyph unicode="&#x2dc;" horiz-adv-x="624" d="M29 1399q39 34 72.5 50.5t82.5 16.5q48 0 128 -27.5t124 -27.5q37 0 64 12t65 39l31 -86q-76 -53 -162 -53q-56 0 -128 25.5t-113 25.5q-14 0 -26 -1.5t-24 -5t-19 -6t-19 -9.5t-15.5 -9t-17 -11.5t-15.5 -10.5z" />
<glyph unicode="&#x2000;" horiz-adv-x="1009" />
<glyph unicode="&#x2001;" horiz-adv-x="2019" />
<glyph unicode="&#x2002;" horiz-adv-x="1009" />
<glyph unicode="&#x2003;" horiz-adv-x="2019" />
<glyph unicode="&#x2004;" horiz-adv-x="673" />
<glyph unicode="&#x2005;" horiz-adv-x="504" />
<glyph unicode="&#x2006;" horiz-adv-x="336" />
<glyph unicode="&#x2007;" horiz-adv-x="336" />
<glyph unicode="&#x2008;" horiz-adv-x="252" />
<glyph unicode="&#x2009;" horiz-adv-x="403" />
<glyph unicode="&#x200a;" horiz-adv-x="112" />
<glyph unicode="&#x2010;" horiz-adv-x="761" d="M129 473v111l500 2v-111z" />
<glyph unicode="&#x2011;" horiz-adv-x="761" d="M129 473v111l500 2v-111z" />
<glyph unicode="&#x2012;" horiz-adv-x="761" d="M129 473v111l500 2v-111z" />
<glyph unicode="&#x2013;" horiz-adv-x="1101" d="M129 459v112l840 2v-112z" />
<glyph unicode="&#x2014;" horiz-adv-x="1744" d="M129 459v112l1483 2v-112z" />
<glyph unicode="&#x2018;" horiz-adv-x="464" d="M125 1114v166l156 266h75l-110 -239l80 -2v-191h-201z" />
<glyph unicode="&#x2019;" horiz-adv-x="411" d="M102 1049l111 239l-78 2v191h199v-166l-156 -266h-76z" />
<glyph unicode="&#x201a;" horiz-adv-x="454" d="M86 -240l111 238l-80 2v193h200v-164l-155 -269h-76z" />
<glyph unicode="&#x201c;" horiz-adv-x="790" d="M129 1049v165l158 267h75l-112 -240l80 -2v-190h-201zM457 1049v165l155 267h76l-113 -240l80 -2v-190h-198z" />
<glyph unicode="&#x201d;" horiz-adv-x="737" d="M102 1049l111 239l-78 2v191h199v-166l-156 -266h-76zM428 1049l113 239l-80 2v191h198v-166l-155 -266h-76z" />
<glyph unicode="&#x201e;" horiz-adv-x="788" d="M86 -240l111 238l-80 2v193h200v-164l-155 -269h-76zM420 -240l110 238l-79 2v193h200v-164l-155 -269h-76z" />
<glyph unicode="&#x2022;" horiz-adv-x="608" d="M133 754q0 71 49 120.5t119 49.5q71 0 120.5 -50t49.5 -120t-49.5 -120t-120.5 -50q-70 0 -119 49.5t-49 120.5z" />
<glyph unicode="&#x2026;" horiz-adv-x="1435" d="M127 0v197h172v-197h-172zM637 0v197h172v-197h-172zM1147 0v197h170v-197h-170z" />
<glyph unicode="&#x202f;" horiz-adv-x="403" />
<glyph unicode="&#x2039;" horiz-adv-x="534" d="M72 514l282 381h80l-227 -381l223 -364h-78z" />
<glyph unicode="&#x203a;" horiz-adv-x="532" d="M96 895h80l283 -381l-281 -364h-78l226 364z" />
<glyph unicode="&#x205f;" horiz-adv-x="504" />
<glyph unicode="&#x20ac;" horiz-adv-x="1169" d="M-31 535v96h174q-4 70 -4 108q0 41 4 119h-174v94h187q44 262 197 405.5t390 143.5q190 0 344 -125l-92 -94q-117 98 -243 98q-181 0 -292.5 -107.5t-148.5 -320.5l439 2v-96h-451q-4 -78 -4 -121q0 -36 4 -106l451 2v-96l-441 -2q35 -213 151.5 -323t307.5 -110 q134 0 252 91l76 -95q-151 -118 -344 -118q-244 0 -398.5 145t-197.5 410h-187z" />
<glyph unicode="&#x2122;" horiz-adv-x="1824" d="M12 848v78h678v-78h-289v-848h-79v848h-310zM842 0v926h106l316 -822l321 822h103v-926h-84v770l-295 -770h-90l-291 762v-762h-86z" />
<glyph unicode="&#x25fc;" horiz-adv-x="1054" d="M0 0v1055h1055v-1055h-1055z" />
</font>
</defs>
</svg>
